<svg id="Layer_1" data-name="Layer 1" xmlns="http://www.w3.org/2000/svg" viewBox="0 0 32 32"><defs><style>.cls-1{fill:#334451;}</style></defs><title>square-transparentArtboard 1</title><g id="Layer_2" data-name="Layer 2"><g id="Layer_1-2" data-name="Layer 1-2"><path class="cls-1" d="M7.19,24.15H24.06a.65.65,0,0,1,.66.64h0V28a.65.65,0,0,1-.65.65H7.21A.65.65,0,0,1,6.56,28V24.79A.65.65,0,0,1,7.19,24.15Z"/><path class="cls-1" d="M22.55,13.67h2.31a.72.72,0,0,1,.53.21.69.69,0,0,1,.21.52v4a.72.72,0,0,1-.72.72H22.56v2.25a.72.72,0,0,1-.72.72h-5a.72.72,0,0,1-.72-.72V19.07H7.21a.72.72,0,0,1-.72-.72V14.43a1.3,1.3,0,0,1,.29-.82l8-9.68a1.21,1.21,0,0,1,1-.44h6a.72.72,0,0,1,.72.72ZM16,14V10.24L13,14Z"/><path class="cls-1" d="M24.52,28.51a.62.62,0,0,0,.21-.46V24.79a.65.65,0,0,0-.65-.65H16V28.7h8.07A.62.62,0,0,0,24.52,28.51Z"/><path class="cls-1" d="M16.08,21.32a.72.72,0,0,0,.72.72h5a.72.72,0,0,0,.72-.72V19.07h2.33a.72.72,0,0,0,.72-.72v-4a.69.69,0,0,0-.21-.5.72.72,0,0,0-.53-.23H22.55V4.2a.72.72,0,0,0-.72-.71H16V19.07h.08Z"/></g></g></svg>