<?xml version="1.0" standalone="no"?>
<!DOCTYPE svg PUBLIC "-//W3C//DTD SVG 20010904//EN"
 "http://www.w3.org/TR/2001/REC-SVG-20010904/DTD/svg10.dtd">
<svg version="1.0" xmlns="http://www.w3.org/2000/svg"
 width="645.000000pt" height="645.000000pt" viewBox="0 0 645.000000 645.000000"
 preserveAspectRatio="xMidYMid meet">

<g transform="translate(0.000000,645.000000) scale(0.100000,-0.100000)"
fill="#ffffff" stroke="none"
>
<path d="M3135 5603 c-258 -22 -416 -63 -605 -158 -124 -62 -187 -106 -318
-220 -157 -136 -268 -276 -317 -397 -30 -76 -52 -98 -120 -123 -82 -29 -160
-72 -242 -130 -42 -30 -80 -55 -84 -55 -5 0 -37 -13 -71 -29 -35 -16 -97 -44
-138 -62 -458 -204 -764 -575 -846 -1024 -27 -151 -25 -436 4 -573 101 -467
403 -855 827 -1061 175 -86 255 -114 392 -142 106 -21 128 -21 1278 -26 644
-2 1323 0 1510 6 337 9 341 10 491 44 314 73 546 198 754 406 121 122 211 248
280 394 59 126 81 190 114 337 36 162 41 275 22 457 -21 193 -53 317 -120 458
-185 389 -495 658 -854 742 -103 24 -317 24 -381 0 -24 -9 -47 -14 -52 -12 -5
3 -26 63 -48 133 -108 342 -295 596 -584 791 -194 131 -435 216 -686 241 -101
10 -125 10 -206 3z m235 -159 c335 -43 665 -229 870 -489 122 -155 253 -466
275 -652 8 -71 14 -74 73 -44 83 42 273 67 393 52 131 -17 177 -30 274 -77
266 -127 502 -413 601 -723 48 -155 69 -439 44 -616 -22 -152 -94 -364 -165
-482 -73 -122 -262 -319 -380 -398 -79 -52 -245 -132 -341 -164 -189 -63 -265
-72 -644 -77 -478 -5 -1006 -22 -1060 -34 -65 -13 -150 -12 -222 4 -44 10
-177 16 -448 21 -602 10 -980 23 -1035 35 -269 57 -553 220 -723 413 -166 188
-256 362 -318 612 -61 244 -33 626 61 832 107 232 335 473 561 591 45 23 110
49 145 58 72 19 223 23 347 10 l82 -8 0 24 c0 31 -32 67 -88 98 -23 13 -42 27
-42 31 0 4 13 18 29 32 29 24 81 40 173 52 57 7 81 36 140 162 51 111 85 159
182 261 275 287 577 446 911 481 124 13 170 12 305 -5z"/>

<path d="M3120 4934 c-55 -24 -99 -73 -115 -128 -23 -78 -18 -140 24 -276 6
-19 11 -37 11 -40 0 -3 -31 -11 -69 -18 -153 -26 -316 -92 -437 -177 l-61 -42
-11 31 c-7 18 -33 63 -58 102 -95 143 -148 179 -262 178 -64 -1 -79 -5 -115
-30 -57 -40 -77 -83 -77 -167 0 -81 18 -129 68 -180 47 -49 88 -74 150 -92 27
-8 61 -24 75 -35 l26 -20 -52 -73 c-29 -40 -65 -100 -80 -134 -30 -67 -67
-200 -67 -242 0 -43 -11 -71 -29 -71 -9 0 -45 14 -81 32 -58 29 -74 32 -156
33 -84 0 -94 -2 -132 -29 -23 -16 -56 -49 -73 -75 -27 -41 -30 -53 -27 -103 6
-76 47 -145 108 -176 40 -21 55 -23 135 -19 59 3 108 12 143 26 82 33 87 31
100 -43 23 -126 91 -295 159 -398 25 -38 26 -39 7 -60 -10 -11 -47 -33 -82
-49 -85 -39 -124 -70 -155 -126 -83 -155 2 -332 159 -333 100 0 182 60 276
203 28 42 53 77 55 77 2 0 25 -17 52 -38 105 -83 245 -141 429 -178 50 -10 92
-21 92 -25 0 -4 -12 -38 -26 -75 -54 -139 -31 -272 60 -350 74 -63 140 -68
213 -15 90 65 112 175 73 352 -12 51 -19 94 -16 96 2 3 42 13 88 23 147 33
345 123 416 190 l22 21 25 -28 c14 -15 39 -53 57 -83 71 -121 165 -179 268
-165 68 9 110 40 143 105 25 47 28 63 24 116 -5 72 -45 154 -92 189 -16 12
-65 42 -107 65 -43 23 -78 43 -78 45 0 2 20 38 45 79 25 42 56 102 69 134 34
80 76 230 76 269 0 33 8 41 25 24 19 -18 160 -51 219 -51 32 0 76 5 98 12 67
20 138 117 138 188 0 72 -71 167 -145 196 -69 26 -173 16 -258 -24 -37 -18
-72 -30 -76 -27 -5 2 -12 30 -16 60 -16 131 -61 248 -146 375 -32 48 -39 67
-32 79 5 9 43 35 82 57 169 97 239 230 181 349 -27 56 -39 69 -89 95 -64 32
-154 26 -213 -16 -37 -26 -158 -179 -189 -240 -11 -21 -13 -20 -78 28 -36 27
-98 65 -138 84 -77 37 -244 84 -299 84 -19 0 -34 3 -34 6 0 3 9 42 21 87 47
185 14 320 -88 363 -42 18 -109 17 -153 -2z m119 -141 c34 -43 36 -71 11 -168
-30 -118 -35 -127 -68 -123 -22 2 -28 9 -30 33 -1 17 -10 63 -18 104 -19 89
-13 133 24 160 36 27 57 26 81 -6z m-1013 -395 c17 -18 50 -60 75 -92 24 -32
52 -70 63 -83 35 -45 -8 -102 -44 -58 -7 9 -55 36 -106 60 -52 25 -100 55
-109 68 -44 67 -16 137 54 137 29 0 44 -7 67 -32z m2019 6 c15 -16 25 -39 25
-55 0 -38 -56 -100 -112 -124 -24 -11 -59 -32 -79 -47 -40 -31 -59 -34 -77
-16 -20 20 -14 35 53 132 96 138 140 164 190 110z m-843 -74 c178 -34 371
-141 496 -274 119 -127 201 -276 243 -441 19 -75 23 -115 23 -245 0 -136 -3
-167 -27 -253 -45 -169 -138 -331 -265 -461 -76 -78 -139 -122 -258 -177 -139
-66 -231 -83 -434 -84 -153 0 -186 3 -260 24 -218 60 -431 209 -549 384 -52
77 -129 245 -152 333 -26 97 -36 289 -20 392 55 355 303 646 653 768 163 57
366 70 550 34z m-1482 -891 c73 -29 89 -44 70 -62 -23 -21 -115 -57 -163 -63
-30 -4 -53 -1 -75 10 -64 33 -64 86 0 127 39 24 86 21 168 -12z m2694 10 c37
-29 47 -58 30 -91 -20 -38 -70 -52 -137 -38 -78 16 -119 44 -115 78 2 22 12
31 58 49 71 29 129 30 164 2z m-456 -909 c75 -39 112 -84 112 -136 0 -23 -7
-38 -22 -48 -53 -38 -124 -3 -173 84 -17 30 -46 69 -63 87 -39 38 -39 47 -6
80 l25 25 30 -28 c16 -16 60 -44 97 -64z m-1795 39 c8 -12 -3 -35 -45 -100
-31 -47 -70 -97 -88 -112 -59 -50 -140 -26 -140 42 0 44 45 90 125 126 39 18
77 40 84 49 17 20 50 17 64 -5z m879 -439 c43 -119 32 -211 -27 -226 -68 -17
-105 96 -74 224 13 54 36 84 58 80 10 -2 27 -33 43 -78z"/>
<path d="M3049 4179 c-169 -25 -365 -133 -501 -277 -82 -87 -108 -131 -149
-252 -27 -81 -33 -113 -37 -220 -7 -194 24 -341 100 -467 48 -82 182 -219 266
-274 89 -58 150 -82 284 -110 183 -38 399 -8 577 78 87 43 207 151 279 251 85
120 132 286 132 469 0 327 -169 586 -485 741 -132 65 -295 87 -466 61z m21
-298 l0 -159 -32 -19 -33 -20 -112 114 c-63 63 -110 119 -107 126 11 30 202
115 262 116 22 1 22 0 22 -158z m373 114 c50 -24 103 -53 117 -64 24 -19 24
-22 10 -45 -9 -14 -51 -68 -95 -119 l-79 -94 -34 24 c-19 12 -39 23 -43 23 -5
0 -9 72 -9 160 0 190 -8 183 133 115z m-248 -121 c-3 -20 -9 -33 -12 -30 -8 8
-12 119 -5 131 11 18 24 -64 17 -101z m-489 -202 c7 -7 30 -33 50 -58 21 -25
51 -52 68 -61 17 -9 25 -18 19 -20 -7 -3 -13 -15 -13 -27 0 -52 -14 -57 -178
-63 l-152 -6 0 27 c0 38 43 163 85 247 l36 70 36 -48 c20 -26 42 -54 49 -61z
m1063 14 c36 -74 81 -200 81 -228 0 -17 -9 -18 -136 -16 l-135 3 -18 52 -18
53 83 84 c45 47 85 94 89 106 9 28 17 20 54 -54z m-486 -110 c44 -19 106 -83
128 -131 85 -185 -128 -392 -316 -306 -66 30 -128 117 -141 199 -15 93 54 213
136 239 50 16 155 15 193 -1z m-463 -346 c15 -45 20 -37 -97 -160 -28 -30 -57
-67 -62 -82 -14 -39 -33 -27 -69 40 -24 46 -92 221 -92 238 0 2 69 4 153 4
l154 0 13 -40z m1019 -2 c-12 -64 -44 -151 -75 -204 l-28 -47 -15 24 c-8 13
-51 60 -93 105 -46 47 -76 87 -74 95 3 8 10 26 15 42 l11 27 133 0 134 0 -8
-42z m-342 -312 c91 -89 105 -106 88 -111 -11 -3 -52 -21 -91 -40 -40 -18 -89
-37 -110 -40 -22 -4 -47 -9 -56 -12 -17 -4 -18 7 -18 134 l0 138 33 16 c17 9
35 17 39 18 4 0 56 -46 115 -103z m-450 79 c33 -14 35 -18 29 -46 -3 -17 -6
-80 -6 -140 l0 -108 -72 20 c-140 39 -262 109 -189 109 10 0 31 17 46 38 30
40 135 141 148 142 4 0 24 -7 44 -15z"/>
<path d="M3145 3455 c-38 -20 -64 -54 -65 -83 0 -43 26 -88 63 -105 54 -26 84
-22 123 17 28 28 34 41 34 78 0 36 -6 50 -28 72 -36 34 -87 42 -127 21z"/>



<path d="M1750 970 c-128 -4 -161 -8 -183 -23 -39 -25 -51 -61 -33 -96 31 -58
-93 -55 1971 -55 2075 -1 1941 -5 1974 55 20 36 -2 78 -54 104 -39 19 -65 20
-1780 20 -957 0 -1810 -2 -1895 -5z"/>
<path d="M958 954 c-34 -18 -48 -43 -48 -83 0 -24 7 -36 33 -52 30 -18 45 -20
207 -17 191 4 229 13 252 64 15 33 0 75 -32 91 -38 19 -376 17 -412 -3z"/>
</g>
</svg>
