<svg id="Layer_1" data-name="Layer 1" xmlns="http://www.w3.org/2000/svg" viewBox="0 0 363 131.67"><defs><style>.cls-1{fill:#fff;}</style></defs><title>logo-hvidArtboard 1</title><path class="cls-1" d="M122.34,11H169.1a2,2,0,0,1,2,2V24.19a2,2,0,0,1-2,2h-28.9v4.71h24.12a2,2,0,0,1,2,2V44a2,2,0,0,1-2,2H140.21V60.51a2,2,0,0,1-2,2H122.34a2,2,0,0,1-2-2V13a2,2,0,0,1,2-2Z"/><path class="cls-1" d="M234.1,32.39v8.75a20.1,20.1,0,0,1-3.68,12.33,19.88,19.88,0,0,1-9.63,7,48.5,48.5,0,0,1-28.09,0,19.88,19.88,0,0,1-9.63-7Q179.4,48.52,179.4,41V32.53q0-10.83,7.61-16.2T206.75,11q12.13,0,19.74,5.38T234.1,32.39ZM199.25,31.2V42.33a5.16,5.16,0,0,0,2,4.38,8.86,8.86,0,0,0,5.48,1.53,8.73,8.73,0,0,0,5.48-1.56,5.26,5.26,0,0,0,2-4.42v-11a5.26,5.26,0,0,0-2-4.41,8.73,8.73,0,0,0-5.48-1.56,8.87,8.87,0,0,0-5.48,1.53A5.16,5.16,0,0,0,199.25,31.2Z"/><path class="cls-1" d="M288.85,57.27q-7.24,5.3-19.6,5.3t-19.6-5.3q-7.24-5.3-7.24-16.55V13a1.87,1.87,0,0,1,.59-1.38,1.92,1.92,0,0,1,1.4-.58h15.37a1.93,1.93,0,0,1,1.4.58,1.86,1.86,0,0,1,.59,1.37V41.73a5.44,5.44,0,0,0,2,4.55,10.24,10.24,0,0,0,11,0,5.45,5.45,0,0,0,2-4.55V13a1.86,1.86,0,0,1,.59-1.37,1.93,1.93,0,0,1,1.4-.58H294.1a1.92,1.92,0,0,1,1.4.58,1.87,1.87,0,0,1,.59,1.38V40.72Q296.09,52,288.85,57.27Z"/><path class="cls-1" d="M360.94,60.22a1.84,1.84,0,0,1,.15.81,1.41,1.41,0,0,1-.48,1,1.56,1.56,0,0,1-1.14.48H342.78a3.14,3.14,0,0,1-3.09-1.84L333.22,46.1H327V60.51a2,2,0,0,1-2,2H309.18a2,2,0,0,1-2-2V13a2,2,0,0,1,2-2h28.6q10.07,0,16,4.78t5.88,13q0,10-7.72,14.49ZM327,24.71V32.5h9.19a3.06,3.06,0,0,0,2.5-1.07,4.06,4.06,0,0,0,.88-2.68,4.83,4.83,0,0,0-.85-2.83,2.89,2.89,0,0,0-2.54-1.21Z"/><path class="cls-1" d="M148,103.12q3.41,2.44,3.41,7.31t-5,7.91q-5,3-13.14,3t-12.72-3Q116,115.4,116,111q0-1.07,1.13-1.07h10a2.33,2.33,0,0,1,1.67.6q1.37,1.25,4.75,1.25,4.66,0,4.66-1.37,0-.85-1.47-1.35a33.29,33.29,0,0,0-5.83-1q-13.87-1.61-13.87-10.27A9.13,9.13,0,0,1,121.58,90q4.46-3,11.94-3t12.08,3.23q4.61,3.23,4.61,6.83a1,1,0,0,1-.32.78,1.22,1.22,0,0,1-.86.29H138.49a2.24,2.24,0,0,1-1.52-.56,5.27,5.27,0,0,0-3.53-1q-3.28,0-3.28,1.33,0,.71,1.27,1.11a32.67,32.67,0,0,0,5.1.83Q144.57,100.69,148,103.12Z"/><path class="cls-1" d="M162.17,87H180.5q7,0,11,3.38a11.63,11.63,0,0,1,.64,17.08q-3.43,3.11-11.67,3.11H174V120a1.34,1.34,0,0,1-1.32,1.32H162.17a1.34,1.34,0,0,1-1.32-1.32V88.33A1.34,1.34,0,0,1,162.17,87Zm11.91,9.12v5.39h6.23a2.41,2.41,0,0,0,2.55-2.6,2.94,2.94,0,0,0-.69-2,2.35,2.35,0,0,0-1.86-.78Z"/><path class="cls-1" d="M207.9,121.32h-9.26a1,1,0,0,1-.76-.32.9.9,0,0,1-.32-.61,1.47,1.47,0,0,1,0-.44l10.69-31.32A2.05,2.05,0,0,1,210.5,87h13.63a2.05,2.05,0,0,1,2.21,1.62L237,120a1.51,1.51,0,0,1,0,.44.9.9,0,0,1-.32.61,1,1,0,0,1-.76.32h-9.26a2.25,2.25,0,0,1-2.21-1.67l-1.23-3.43h-12l-1.23,3.43A2.25,2.25,0,0,1,207.9,121.32Zm12.89-14.66-3.48-10.2-3.48,10.2Z"/><path class="cls-1" d="M254.32,100.46v7.42a3.44,3.44,0,0,0,1.35,2.92,5.7,5.7,0,0,0,3.53,1,5.9,5.9,0,0,0,3.16-.65,5,5,0,0,0,1.64-1.9,2,2,0,0,1,1.74-1.25h10.59a1,1,0,0,1,.76.31,1,1,0,0,1,.32.75q0,4.49-4.31,8.2a16.42,16.42,0,0,1-5.74,3,28,28,0,0,1-8.43,1.13,25.66,25.66,0,0,1-8.85-1.46,13.91,13.91,0,0,1-6.5-4.78,13.16,13.16,0,0,1-2.5-8.15v-5.64a13.27,13.27,0,0,1,2.5-8.17Q248.29,87,259.32,87a26.59,26.59,0,0,1,8,1.13,16.44,16.44,0,0,1,5.74,3q4.31,3.71,4.31,8.2a1,1,0,0,1-.32.75,1,1,0,0,1-.76.31H265.75A2,2,0,0,1,264,99.07a5,5,0,0,0-1.64-1.9,5.9,5.9,0,0,0-3.16-.65,5.7,5.7,0,0,0-3.53,1A3.44,3.44,0,0,0,254.32,100.46Z"/><path class="cls-1" d="M296.82,111.77h19.56a1.34,1.34,0,0,1,1.32,1.32V120a1.34,1.34,0,0,1-1.32,1.32h-31a1.34,1.34,0,0,1-1.32-1.32V88.33A1.34,1.34,0,0,1,285.4,87h30.49a1.34,1.34,0,0,1,1.32,1.32v6.91a1.34,1.34,0,0,1-1.32,1.32H296.82v3.09H313.2a1.34,1.34,0,0,1,1.32,1.32v6.37a1.34,1.34,0,0,1-1.32,1.32H296.82Z"/><path class="cls-1" d="M356.31,103.12q3.41,2.44,3.41,7.31t-5,7.91q-5,3-13.14,3t-12.72-3q-4.53-3-4.53-7.36,0-1.07,1.13-1.07h10a2.33,2.33,0,0,1,1.67.6q1.37,1.25,4.75,1.25,4.66,0,4.66-1.37,0-.85-1.47-1.35a33.29,33.29,0,0,0-5.83-1q-13.87-1.61-13.87-10.27A9.13,9.13,0,0,1,329.91,90q4.46-3,11.94-3t12.08,3.23q4.61,3.23,4.61,6.83a1,1,0,0,1-.32.78,1.22,1.22,0,0,1-.86.29H346.82a2.24,2.24,0,0,1-1.52-.56,5.27,5.27,0,0,0-3.53-1q-3.28,0-3.28,1.33,0,.71,1.27,1.11a32.67,32.67,0,0,0,5.1.83Q352.9,100.69,356.31,103.12Z"/><polygon class="cls-1" points="55.93 59.19 55.93 46.34 45.45 59.19 55.93 59.19"/><path class="cls-1" d="M89,11.14H23a12,12,0,0,0-12,12v86a12,12,0,0,0,12,12H89a12,12,0,0,0,12-12v-86A12,12,0,0,0,89,11.14Zm-3,96.41a2.25,2.25,0,0,1-2.22,2.22h-58a2.25,2.25,0,0,1-2.22-2.22V96.36a2.25,2.25,0,0,1,2.22-2.22h58A2.25,2.25,0,0,1,86,96.36Zm3-33.33a2.49,2.49,0,0,1-2.46,2.46h-8v7.74a2.49,2.49,0,0,1-2.46,2.46H58.75a2.49,2.49,0,0,1-2.46-2.46V76.69H25.77a2.49,2.49,0,0,1-2.46-2.46V60.74a4.47,4.47,0,0,1,1-2.82L51.92,24.66a4.15,4.15,0,0,1,3.37-1.55H76.06a2.49,2.49,0,0,1,2.46,2.46V58.19h7.93a2.47,2.47,0,0,1,1.82.73A2.37,2.37,0,0,1,89,60.65Z"/></svg>